<svg width="40" height="40" viewBox="0 0 40 40" fill="none" xmlns="http://www.w3.org/2000/svg">
<rect width="40" height="40" rx="20" fill="#1E293B"/>
<path fill-rule="evenodd" clip-rule="evenodd" d="M23.6757 12.3072L23.6766 12.9319C25.9721 13.1118 27.4885 14.676 27.4909 17.0748L27.5 24.0963C27.5033 26.7116 25.8602 28.3208 23.2265 28.325L16.7932 28.3333C14.176 28.3366 12.5123 26.6891 12.5091 24.0663L12.5 17.1273C12.4967 14.7126 13.9596 13.1526 16.2551 12.9419L16.2543 12.3172C16.2535 11.9507 16.525 11.675 16.887 11.675C17.2491 11.6742 17.5206 11.949 17.5214 12.3155L17.5222 12.8985L22.4095 12.8919L22.4087 12.3088C22.4078 11.9424 22.6794 11.6675 23.0414 11.6667C23.3952 11.6658 23.6749 11.9407 23.6757 12.3072ZM13.7679 17.3846L26.2247 17.368V17.0764C26.1893 15.2857 25.2908 14.3461 23.6782 14.2062L23.679 14.8476C23.679 15.2057 23.4001 15.4897 23.0463 15.4897C22.6843 15.4906 22.412 15.2074 22.412 14.8492L22.4111 14.1746L17.5239 14.1812L17.5247 14.8551C17.5247 15.214 17.254 15.4972 16.892 15.4972C16.5299 15.4981 16.2576 15.2157 16.2576 14.8567L16.2568 14.2154C14.6524 14.3761 13.7646 15.319 13.7671 17.1256L13.7679 17.3846ZM22.6999 21.1702V21.1794C22.7081 21.5625 23.0208 21.8532 23.4001 21.8449C23.7703 21.8357 24.0657 21.5184 24.0575 21.1352C24.0402 20.7688 23.7432 20.4697 23.3738 20.4706C22.9953 20.4789 22.6991 20.7871 22.6999 21.1702ZM23.3795 24.91C23.0011 24.9017 22.6958 24.586 22.695 24.2029C22.6868 23.8197 22.9904 23.5024 23.3688 23.4932H23.3771C23.7638 23.4932 24.0773 23.8089 24.0773 24.2004C24.0781 24.5919 23.7654 24.9092 23.3795 24.91ZM19.3101 21.1836C19.3266 21.5667 19.64 21.8657 20.0185 21.8491C20.3888 21.8316 20.6841 21.5151 20.6677 21.1319C20.6586 20.7571 20.3542 20.4656 19.984 20.4664C19.6055 20.4831 19.3093 20.8004 19.3101 21.1836ZM20.0218 24.8725C19.6433 24.8892 19.3307 24.5902 19.3134 24.207C19.3134 23.8239 19.6088 23.5074 19.9872 23.4899C20.3575 23.4891 20.6627 23.7806 20.671 24.1546C20.6882 24.5385 20.392 24.8551 20.0218 24.8725ZM15.9203 21.2127C15.9367 21.5958 16.2502 21.8957 16.6287 21.8782C16.9989 21.8615 17.2943 21.5442 17.277 21.1611C17.2688 20.7863 16.9644 20.4947 16.5933 20.4956C16.2148 20.5122 15.9194 20.8296 15.9203 21.2127ZM16.632 24.8767C16.2535 24.8942 15.9408 24.5944 15.9236 24.2112C15.9227 23.8281 16.2189 23.5107 16.5974 23.4941C16.9677 23.4932 17.2729 23.7848 17.2811 24.1596C17.2984 24.5427 17.003 24.8601 16.632 24.8767Z" fill="#22C55E"/>
</svg>
